<?xml version="1.0" standalone="no"?>
<!DOCTYPE svg PUBLIC "-//W3C//DTD SVG 20010904//EN"
 "http://www.w3.org/TR/2001/REC-SVG-20010904/DTD/svg10.dtd">
<svg version="1.0" xmlns="http://www.w3.org/2000/svg"
 width="1500.000000pt" height="1500.000000pt" viewBox="0 0 1500.000000 1500.000000"
 preserveAspectRatio="xMidYMid meet">
<metadata>Created by Svg.la</metadata>
<g transform="translate(0.000000,1500.000000) scale(0.100000,-0.100000)"
fill="#000000" stroke="none">
<path d="M0 7500 l0 -7500 7500 0 7500 0 0 7500 0 7500 -7500 0 -7500 0 0
-7500z m10500 1384 c177 -41 340 -172 420 -338 30 -62 47 -114 58 -182 l16
-94 56 0 c204 0 396 -83 545 -234 153 -156 225 -329 225 -541 0 -212 -72 -385
-225 -541 -150 -152 -341 -234 -547 -234 -64 0 -57 10 -78 -103 -20 -100 -83
-212 -169 -298 -87 -87 -173 -139 -281 -168 -75 -21 -75 -21 -3033 -21 -3288
0 -3005 -6 -3157 68 -110 53 -224 169 -278 283 -22 46 -46 109 -52 140 l-13
56 -81 7 c-334 25 -611 243 -718 566 -30 90 -32 103 -32 245 0 142 2 155 32
245 66 200 189 353 371 460 105 62 272 110 384 110 22 0 39 5 41 13 2 6 9 41
15 77 34 185 184 368 366 449 117 52 -54 49 3115 50 2617 1 2962 -1 3020 -15z"/>
<path d="M4500 8824 c-243 -52 -423 -255 -448 -506 l-7 -73 -110 -6 c-137 -7
-186 -20 -300 -74 -261 -126 -417 -377 -417 -670 0 -294 155 -543 417 -670
109 -53 200 -75 319 -78 l90 -2 12 -70 c40 -234 199 -406 430 -465 76 -20 122
-20 2994 -20 2052 0 2934 3 2976 11 88 16 210 77 278 140 109 99 172 226 185
372 l6 72 113 2 c135 2 231 26 343 84 255 133 408 427 369 709 -32 234 -170
435 -370 539 -112 59 -208 81 -347 81 l-113 0 0 73 c0 264 -191 497 -455 552
-103 22 -5865 21 -5965 -1z m5950 -97 c170 -58 295 -175 351 -332 17 -48 23
-90 26 -210 l5 -151 67 18 c306 80 625 -109 706 -417 19 -75 19 -204 0 -280
-52 -204 -223 -372 -427 -420 -83 -19 -197 -18 -279 3 l-67 18 -5 -131 c-4
-98 -10 -145 -26 -190 -67 -187 -236 -322 -431 -346 -56 -6 -1066 -9 -2945 -7
l-2860 3 -66 26 c-89 34 -145 69 -198 121 -94 93 -148 211 -158 344 l-6 71
-97 -5 c-124 -6 -221 15 -333 70 -107 54 -226 170 -279 273 -63 124 -73 166
-73 310 0 101 4 142 19 185 60 177 184 324 336 399 113 55 207 74 333 68 l97
-5 0 66 c0 138 50 268 137 363 93 100 195 153 323 169 36 4 1354 7 2930 6
2757 -1 2867 -2 2920 -19z"/>
<path d="M4561 8689 c-134 -26 -258 -124 -323 -256 -41 -83 -42 -86 -47 -216
-4 -80 -10 -131 -16 -130 -6 1 -46 6 -91 12 -298 41 -582 -147 -670 -444 -24
-81 -24 -239 0 -320 50 -169 168 -312 317 -384 46 -22 107 -45 134 -52 61 -14
214 -15 272 -1 23 5 44 7 48 4 3 -3 5 -42 5 -86 1 -96 12 -149 47 -225 33 -70
131 -169 201 -205 118 -60 -99 -56 3047 -56 2521 0 2888 2 2938 15 163 42 290
161 338 316 15 48 19 92 19 210 0 89 4 149 10 149 5 0 32 -9 60 -20 304 -120
647 66 715 387 18 86 18 130 0 216 -48 227 -233 392 -472 421 -62 8 -180 -9
-246 -35 -26 -11 -52 -19 -57 -19 -6 0 -10 67 -10 169 0 138 -3 180 -19 230
-48 155 -175 274 -338 316 -50 13 -414 15 -2938 14 -1584 -1 -2900 -5 -2924
-10z m5029 -503 c79 -23 87 -29 71 -59 -7 -13 -11 -35 -9 -48 3 -24 3 -24 151
-27 l148 -3 48 52 c47 51 48 51 77 36 41 -21 124 -96 124 -112 0 -17 -46 -25
-146 -25 -94 0 -76 10 -224 -128 -55 -52 -72 -74 -64 -82 15 -15 146 -35 314
-50 74 -6 136 -13 138 -15 2 -2 -17 -23 -42 -48 -60 -57 -60 -83 -4 -135 22
-21 38 -44 35 -49 -4 -7 -113 -14 -297 -18 l-290 -8 -40 -41 c-39 -40 -57 -72
-47 -83 3 -2 93 -6 200 -6 l194 -2 31 33 c16 17 36 32 43 32 18 0 119 -78 119
-92 0 -7 -10 -22 -22 -35 -19 -21 -22 -37 -27 -195 -4 -95 -10 -179 -15 -187
-22 -34 -136 -56 -136 -26 0 31 -30 72 -60 85 -39 16 -28 28 30 32 l45 3 3
139 c2 93 -1 143 -9 152 -12 14 -85 19 -126 8 -23 -6 -23 -8 -23 -201 l0 -194
-35 -15 c-42 -17 -92 -18 -98 -1 -3 6 -3 97 1 201 6 214 5 216 -72 216 -92 0
-86 13 -86 -207 l0 -194 -36 -15 c-20 -8 -50 -14 -68 -12 l-31 3 0 203 c0 227
2 222 -73 222 -84 0 -83 4 -82 -206 2 -213 0 -218 -82 -238 -51 -12 -57 7 -51
171 2 82 1 197 -4 256 -5 60 -5 111 -1 113 4 3 34 -6 66 -19 69 -28 164 -40
242 -29 54 7 54 7 68 54 27 84 35 81 -242 76 l-244 -5 -11 24 c-6 13 -11 27
-11 31 0 4 241 7 535 7 l534 0 22 22 c12 12 19 27 17 35 -4 8 -57 25 -134 41
-71 16 -171 42 -223 60 l-94 31 -61 -17 c-182 -51 -542 -108 -582 -93 -27 10
-5 24 49 31 77 10 348 81 406 106 28 12 51 27 51 35 0 7 -20 27 -45 44 -24 17
-74 60 -109 95 -36 36 -77 70 -91 75 -33 12 -127 13 -180 0 -43 -10 -61 -1
-75 35 -7 20 -4 20 264 25 l271 5 3 65 c3 81 7 93 29 86 10 -2 43 -11 73 -20z
m-3593 -56 c65 -54 80 -77 63 -94 -6 -6 -88 -12 -208 -14 -108 -1 -207 -5
-220 -8 -22 -4 -23 -7 -20 -112 l3 -107 115 -3 115 -3 37 41 38 41 30 -18 c17
-10 47 -34 67 -55 l36 -37 -29 -25 -29 -24 0 -409 0 -408 -35 -17 c-19 -10
-49 -18 -66 -18 -36 0 -44 16 -44 86 0 38 -2 42 -31 48 -40 8 -756 8 -786 0
-18 -5 -23 -16 -29 -60 -6 -52 -7 -54 -50 -70 -49 -19 -90 -13 -96 13 -2 10
-1 142 3 293 4 151 4 363 0 470 -4 107 -6 198 -4 202 2 3 40 -7 84 -23 71 -26
93 -29 168 -27 l86 3 7 50 c5 28 5 79 2 114 l-7 64 -194 -5 -194 -5 -15 28
c-7 15 -14 29 -14 31 0 2 224 1 497 -1 480 -3 573 1 573 27 0 11 66 82 76 82
5 0 37 -23 71 -50z m1127 -21 c68 -20 87 -39 68 -62 -7 -8 -15 -137 -21 -332
-8 -248 -14 -340 -29 -411 -33 -154 -99 -285 -192 -382 -46 -47 -88 -78 -96
-69 -3 3 13 35 35 72 44 74 82 167 105 260 36 147 41 218 41 583 0 265 3 362
11 362 7 0 42 -9 78 -21z m840 0 c67 -20 92 -43 65 -60 -12 -7 -14 -102 -14
-580 l0 -572 -26 -19 c-33 -25 -101 -35 -116 -17 -7 10 -8 107 -2 324 7 290 5
657 -6 858 -6 102 -8 100 99 66z m-444 -60 c41 -11 79 -24 83 -28 5 -5 1 -23
-8 -41 -15 -30 -17 -77 -14 -482 l3 -450 -23 -19 c-27 -22 -89 -35 -108 -23
-12 8 -15 97 -16 537 -1 290 0 527 3 527 3 0 39 -9 80 -21z m-1052 -591 c-3
-368 -5 -423 -18 -423 -13 0 -15 53 -18 410 -1 225 0 416 3 422 2 7 11 13 20
13 13 0 15 -47 13 -422z m2159 7 c2 -227 -1 -416 -6 -424 -5 -8 -16 -11 -25
-8 -14 6 -16 50 -16 420 0 228 3 417 7 421 4 4 14 5 23 4 13 -3 15 -52 17
-413z m-4680 129 c101 -65 54 -217 -66 -216 -108 2 -158 130 -80 203 44 41 96
46 146 13z m7272 10 c93 -37 101 -154 16 -210 -81 -53 -198 26 -181 122 8 38
55 91 89 97 12 2 25 5 29 6 4 0 25 -6 47 -15z"/>
<path d="M9305 7991 c-16 -27 183 -140 259 -148 34 -3 48 2 88 31 54 41 103
101 93 116 -8 13 -431 14 -440 1z"/>
<path d="M5344 8007 c-2 -7 -3 -58 -2 -113 l3 -99 55 -3 c71 -4 80 8 80 107 0
119 -2 121 -71 121 -40 0 -61 -4 -65 -13z"/>
<path d="M5012 7723 c-10 -25 -9 -470 1 -480 14 -13 84 74 122 151 40 81 65
184 65 272 0 73 -1 74 -106 74 -62 0 -76 -3 -82 -17z"/>
<path d="M5347 7733 c-3 -5 -10 -42 -16 -83 -16 -104 -38 -176 -72 -237 -35
-60 -142 -164 -202 -194 -53 -27 -57 -33 -57 -90 0 -81 -18 -77 365 -84 187
-3 372 -2 410 2 l70 8 3 143 c1 78 0 142 -2 142 -3 0 -23 -9 -45 -21 -33 -17
-58 -20 -156 -21 -166 0 -159 -10 -165 230 -3 103 -9 193 -13 200 -9 13 -113
17 -120 5z"/>
<path d="M5621 7726 c-8 -9 -11 -57 -9 -152 l3 -139 39 -3 c73 -6 81 0 105 83
12 41 26 75 31 75 6 0 10 -30 10 -68 0 -66 17 -112 41 -112 6 0 8 63 7 163
l-3 162 -106 3 c-82 2 -109 -1 -118 -12z"/>
</g>
</svg>
